<mxfile host="Electron" agent="Mozilla/5.0 (X11; Linux x86_64) AppleWebKit/537.36 (KHTML, like Gecko) draw.io/25.0.2 Chrome/128.0.6613.186 Electron/32.2.7 Safari/537.36" version="25.0.2">
  <diagram name="soa-example" id="nfpX_JXY3w4-xvvaQlQ7">
    <mxGraphModel dx="2261" dy="955" grid="1" gridSize="10" guides="1" tooltips="1" connect="1" arrows="1" fold="1" page="1" pageScale="1" pageWidth="827" pageHeight="1169" math="0" shadow="0">
      <root>
        <mxCell id="0" />
        <mxCell id="1" parent="0" />
        <mxCell id="Ak2kLdKkE1olb_ft7CGu-1" value="&lt;font style=&quot;font-size: 22px;&quot;&gt;Service-Bus&lt;/font&gt;" style="rounded=1;whiteSpace=wrap;html=1;" parent="1" vertex="1">
          <mxGeometry x="-230" y="400" width="460" height="40" as="geometry" />
        </mxCell>
        <mxCell id="Ak2kLdKkE1olb_ft7CGu-4" value="&lt;font style=&quot;font-size: 22px;&quot;&gt;PaymentService&lt;/font&gt;" style="rounded=1;whiteSpace=wrap;html=1;" parent="1" vertex="1">
          <mxGeometry x="-90" y="522" width="180" height="45" as="geometry" />
        </mxCell>
        <mxCell id="Ak2kLdKkE1olb_ft7CGu-5" style="edgeStyle=orthogonalEdgeStyle;rounded=0;orthogonalLoop=1;jettySize=auto;html=1;fontStyle=4;dashed=1;entryX=1.001;entryY=0.57;entryDx=0;entryDy=0;entryPerimeter=0;exitX=0.879;exitY=0.022;exitDx=0;exitDy=0;exitPerimeter=0;" parent="1" source="Ak2kLdKkE1olb_ft7CGu-13" edge="1">
          <mxGeometry relative="1" as="geometry">
            <mxPoint x="74.99999999999986" y="295.5" as="targetPoint" />
            <mxPoint x="268.07000000000005" y="518.685" as="sourcePoint" />
            <Array as="points">
              <mxPoint x="268" y="296" />
            </Array>
          </mxGeometry>
        </mxCell>
        <mxCell id="Ak2kLdKkE1olb_ft7CGu-6" value="register" style="edgeLabel;html=1;align=center;verticalAlign=middle;resizable=0;points=[];fontSize=22;" parent="Ak2kLdKkE1olb_ft7CGu-5" connectable="0" vertex="1">
          <mxGeometry x="-0.1794" y="-2" relative="1" as="geometry">
            <mxPoint y="-10" as="offset" />
          </mxGeometry>
        </mxCell>
        <mxCell id="Ak2kLdKkE1olb_ft7CGu-7" value="" style="endArrow=classic;html=1;rounded=0;dashed=1;entryX=0;entryY=0.5;entryDx=0;entryDy=0;entryPerimeter=0;" parent="1" target="Ak2kLdKkE1olb_ft7CGu-12" edge="1">
          <mxGeometry width="50" height="50" relative="1" as="geometry">
            <mxPoint x="-275" y="521" as="sourcePoint" />
            <mxPoint x="-117" y="296" as="targetPoint" />
            <Array as="points">
              <mxPoint x="-275" y="371" />
              <mxPoint x="-275" y="295" />
            </Array>
          </mxGeometry>
        </mxCell>
        <mxCell id="Ak2kLdKkE1olb_ft7CGu-8" value="register" style="edgeLabel;html=1;align=center;verticalAlign=middle;resizable=0;points=[];fontSize=22;" parent="Ak2kLdKkE1olb_ft7CGu-7" connectable="0" vertex="1">
          <mxGeometry x="-0.2659" y="1" relative="1" as="geometry">
            <mxPoint x="3" y="-23" as="offset" />
          </mxGeometry>
        </mxCell>
        <mxCell id="Ak2kLdKkE1olb_ft7CGu-9" value="&lt;font style=&quot;font-size: 14px;&quot;&gt;SOAP&lt;/font&gt;" style="endArrow=classic;startArrow=classic;html=1;rounded=0;entryX=0.144;entryY=1.063;entryDx=0;entryDy=0;entryPerimeter=0;exitX=0.777;exitY=-0.017;exitDx=0;exitDy=0;exitPerimeter=0;" parent="1" edge="1">
          <mxGeometry width="50" height="50" relative="1" as="geometry">
            <mxPoint x="-200.29999999999987" y="521.2350000000001" as="sourcePoint" />
            <mxPoint x="-199.71999999999994" y="440.0000000000001" as="targetPoint" />
          </mxGeometry>
        </mxCell>
        <mxCell id="Ak2kLdKkE1olb_ft7CGu-10" value="" style="endArrow=classic;startArrow=classic;html=1;rounded=0;entryX=0.084;entryY=0.976;entryDx=0;entryDy=0;entryPerimeter=0;exitX=0.442;exitY=0;exitDx=0;exitDy=0;exitPerimeter=0;" parent="1" edge="1">
          <mxGeometry width="50" height="50" relative="1" as="geometry">
            <mxPoint x="-0.3000000000000682" y="522" as="sourcePoint" />
            <mxPoint x="-0.07999999999998408" y="440" as="targetPoint" />
          </mxGeometry>
        </mxCell>
        <mxCell id="Ak2kLdKkE1olb_ft7CGu-11" value="" style="endArrow=classic;startArrow=classic;html=1;rounded=0;entryX=0.084;entryY=0.976;entryDx=0;entryDy=0;entryPerimeter=0;exitX=0.223;exitY=-0.008;exitDx=0;exitDy=0;exitPerimeter=0;" parent="1" edge="1">
          <mxGeometry width="50" height="50" relative="1" as="geometry">
            <mxPoint x="199.80000000000007" y="522.0000000000001" as="sourcePoint" />
            <mxPoint x="199.65999999999997" y="440.36" as="targetPoint" />
          </mxGeometry>
        </mxCell>
        <mxCell id="mJ9nmP9rhoMjLufX95Xy-7" value="SOAP" style="edgeLabel;html=1;align=center;verticalAlign=middle;resizable=0;points=[];fontSize=14;" vertex="1" connectable="0" parent="Ak2kLdKkE1olb_ft7CGu-11">
          <mxGeometry x="0.0536" y="4" relative="1" as="geometry">
            <mxPoint x="4" as="offset" />
          </mxGeometry>
        </mxCell>
        <mxCell id="Ak2kLdKkE1olb_ft7CGu-12" value="&lt;font style=&quot;font-size: 22px;&quot;&gt;Registry&lt;/font&gt;" style="shape=cylinder3;whiteSpace=wrap;html=1;boundedLbl=1;backgroundOutline=1;size=2.9206542968748863;" parent="1" vertex="1">
          <mxGeometry x="-75" y="270" width="150" height="50" as="geometry" />
        </mxCell>
        <mxCell id="Ak2kLdKkE1olb_ft7CGu-13" value="&lt;font style=&quot;font-size: 22px;&quot;&gt;ShipmentService&lt;/font&gt;" style="rounded=1;whiteSpace=wrap;html=1;" parent="1" vertex="1">
          <mxGeometry x="110" y="522" width="180" height="45" as="geometry" />
        </mxCell>
        <mxCell id="Ak2kLdKkE1olb_ft7CGu-14" value="&lt;font style=&quot;font-size: 22px;&quot;&gt;OrderService&lt;/font&gt;" style="rounded=1;whiteSpace=wrap;html=1;" parent="1" vertex="1">
          <mxGeometry x="-290" y="522" width="180" height="45" as="geometry" />
        </mxCell>
        <mxCell id="Ak2kLdKkE1olb_ft7CGu-15" value="" style="endArrow=classic;startArrow=none;html=1;rounded=0;exitX=0.442;exitY=0;exitDx=0;exitDy=0;exitPerimeter=0;startFill=0;" parent="1" edge="1">
          <mxGeometry width="50" height="50" relative="1" as="geometry">
            <mxPoint x="-0.2100000000000648" y="400" as="sourcePoint" />
            <mxPoint y="320" as="targetPoint" />
          </mxGeometry>
        </mxCell>
        <mxCell id="mJ9nmP9rhoMjLufX95Xy-1" value="WSDL" style="rounded=1;whiteSpace=wrap;html=1;fontSize=14;" vertex="1" parent="1">
          <mxGeometry x="-225" y="560" width="50" height="20" as="geometry" />
        </mxCell>
        <mxCell id="mJ9nmP9rhoMjLufX95Xy-3" value="" style="edgeStyle=orthogonalEdgeStyle;rounded=0;orthogonalLoop=1;jettySize=auto;html=1;dashed=1;endSize=6;jumpSize=8;entryX=0.5;entryY=0;entryDx=0;entryDy=0;entryPerimeter=0;" edge="1" parent="1" target="Ak2kLdKkE1olb_ft7CGu-12">
          <mxGeometry relative="1" as="geometry">
            <mxPoint y="270" as="targetPoint" />
            <mxPoint x="29.96702702702686" y="567" as="sourcePoint" />
            <Array as="points">
              <mxPoint x="-50" y="567" />
              <mxPoint x="-50" y="600" />
              <mxPoint x="-380" y="600" />
              <mxPoint x="-380" y="230" />
              <mxPoint y="230" />
            </Array>
          </mxGeometry>
        </mxCell>
        <mxCell id="mJ9nmP9rhoMjLufX95Xy-6" value="SOAP" style="edgeLabel;html=1;align=center;verticalAlign=middle;resizable=0;points=[];fontSize=14;" vertex="1" connectable="0" parent="mJ9nmP9rhoMjLufX95Xy-3">
          <mxGeometry x="0.9002" y="-1" relative="1" as="geometry">
            <mxPoint x="22" y="249" as="offset" />
          </mxGeometry>
        </mxCell>
        <mxCell id="mJ9nmP9rhoMjLufX95Xy-9" value="&lt;span style=&quot;font-size: 22px;&quot;&gt;register&lt;/span&gt;" style="edgeLabel;html=1;align=center;verticalAlign=middle;resizable=0;points=[];" vertex="1" connectable="0" parent="mJ9nmP9rhoMjLufX95Xy-3">
          <mxGeometry x="-0.1688" y="2" relative="1" as="geometry">
            <mxPoint x="2" y="-111" as="offset" />
          </mxGeometry>
        </mxCell>
        <mxCell id="mJ9nmP9rhoMjLufX95Xy-2" value="WSDL" style="rounded=1;whiteSpace=wrap;html=1;fontSize=14;" vertex="1" parent="1">
          <mxGeometry x="-25" y="560" width="50" height="20" as="geometry" />
        </mxCell>
        <mxCell id="mJ9nmP9rhoMjLufX95Xy-5" value="WSDL" style="rounded=1;whiteSpace=wrap;html=1;fontSize=14;" vertex="1" parent="1">
          <mxGeometry x="175" y="560" width="50" height="20" as="geometry" />
        </mxCell>
      </root>
    </mxGraphModel>
  </diagram>
</mxfile>
